<svg width="510" height="435" viewBox="0 0 510 435" fill="none" xmlns="http://www.w3.org/2000/svg">
<rect width="510" height="435" fill="#EDEFF3"/>
<path d="M132.733 8.69653V13.6457H131.701V9.67407H131.674L130.539 10.385V9.47583L131.763 8.69653H132.733ZM135.803 13.7141C134.565 13.7141 133.813 12.7913 133.813 11.1711C133.813 9.55102 134.565 8.62817 135.803 8.62817C137.04 8.62817 137.792 9.55786 137.792 11.1711C137.792 12.7981 137.04 13.7141 135.803 13.7141ZM135.803 12.8665C136.377 12.8665 136.746 12.3127 136.739 11.1711C136.739 10.0432 136.377 9.46899 135.803 9.46899C135.229 9.46899 134.866 10.0432 134.866 11.1711C134.859 12.3127 135.229 12.8665 135.803 12.8665ZM140.636 8.69653V13.6457H139.604V9.67407H139.576L138.441 10.385V9.47583L139.665 8.69653H140.636ZM142.044 10.9319C142.276 10.6858 142.57 10.5559 142.892 10.5559C143.452 10.5559 143.931 10.9456 144.491 10.9456C144.806 10.9456 145.093 10.8157 145.318 10.5696V11.4036C145.086 11.6497 144.792 11.7795 144.471 11.7795C143.91 11.7795 143.432 11.3899 142.871 11.3899C142.557 11.3899 142.27 11.5198 142.044 11.7659V10.9319ZM146.214 13.6457L146.207 12.9006L147.984 11.2668C148.449 10.8225 148.695 10.5491 148.695 10.1594C148.695 9.72192 148.36 9.44848 147.909 9.44848C147.444 9.44848 147.144 9.74243 147.144 10.2141H146.166C146.159 9.2434 146.877 8.62817 147.923 8.62817C148.982 8.62817 149.687 9.22973 149.687 10.0911C149.687 10.6516 149.413 11.1165 148.395 12.0393L147.643 12.7707V12.7981H149.755V13.6457H146.214ZM152.407 13.7141C151.17 13.7141 150.418 12.7913 150.418 11.1711C150.418 9.55102 151.17 8.62817 152.407 8.62817C153.645 8.62817 154.396 9.55786 154.396 11.1711C154.396 12.7981 153.645 13.7141 152.407 13.7141ZM152.407 12.8665C152.981 12.8665 153.351 12.3127 153.344 11.1711C153.344 10.0432 152.981 9.46899 152.407 9.46899C151.833 9.46899 151.471 10.0432 151.471 11.1711C151.464 12.3127 151.833 12.8665 152.407 12.8665ZM157.021 13.7141C155.996 13.7073 155.025 13.0989 155.025 11.2873C155.025 9.61938 155.825 8.62817 157.062 8.62817C158.061 8.62817 158.737 9.25708 158.84 10.0706H157.828C157.746 9.72192 157.459 9.51001 157.062 9.51001C156.393 9.51001 156.037 10.1184 156.03 11.0891H156.078C156.304 10.6516 156.796 10.3918 157.343 10.3918C158.231 10.3918 158.895 11.0618 158.895 11.9915C158.895 12.9963 158.136 13.7209 157.021 13.7141ZM157.015 12.9006C157.521 12.9006 157.896 12.5178 157.896 12.0188C157.896 11.5266 157.534 11.137 157.028 11.137C156.522 11.137 156.14 11.5334 156.133 12.0188C156.14 12.5041 156.509 12.9006 157.015 12.9006ZM164.411 8.41626V8.9768C164.411 9.55786 164.411 10.1936 164.254 11.0618H165.074V11.7659H162.647V14.2815H161.772V11.7659H159.4V11.0618H163.372C163.529 10.2585 163.543 9.65014 163.543 9.11352H160.05V8.41626H164.411ZM170.693 12.012V14.2747H169.825V12.6956H166.421V12.012H170.693ZM170.693 8.05395V11.7317H169.825V10.9456H168.431C168.133 11.2668 167.692 11.4582 167.187 11.4582C166.243 11.4582 165.525 10.8088 165.532 9.90649C165.525 9.02465 166.243 8.38208 167.187 8.38891C167.692 8.38549 168.133 8.57348 168.431 8.88794H169.825V8.05395H170.693ZM167.187 9.12036C166.701 9.12036 166.353 9.42114 166.359 9.90649C166.353 10.4192 166.701 10.7131 167.187 10.7131C167.645 10.7131 168 10.4192 168 9.90649C168 9.42114 167.645 9.12036 167.187 9.12036ZM168.793 10.2483H169.825V9.59204H168.8C168.817 9.69116 168.827 9.79712 168.827 9.90649C168.827 10.0261 168.813 10.1389 168.793 10.2483ZM177.174 11.2327V11.9299H171.5V11.2327H177.174ZM176.531 13.468V14.1653H172.184V12.3469H173.059V13.468H176.531ZM174.337 8.24536C175.697 8.23852 176.593 8.72387 176.6 9.51684C176.593 10.3098 175.697 10.802 174.337 10.802C172.963 10.802 172.067 10.3098 172.067 9.51684C172.067 8.72387 172.963 8.23852 174.337 8.24536ZM174.337 8.92895C173.476 8.93579 172.97 9.14087 172.977 9.51684C172.97 9.90649 173.476 10.0979 174.337 10.0979C175.198 10.0979 175.697 9.90649 175.697 9.51684C175.697 9.14087 175.198 8.93579 174.337 8.92895ZM184.099 8.05395V9.74926H184.939V10.467H184.099V12.552H183.224V8.05395H184.099ZM182.212 8.55297V9.25024H180.277V10.8225C181.402 10.8157 182.021 10.7815 182.718 10.6311L182.807 11.3284C182.027 11.4924 181.31 11.5266 179.929 11.5266H179.402V8.55297H182.212ZM184.324 13.468V14.1653H180.065V12.0735H180.934V13.468H184.324ZM187.462 10.0022C187.462 10.884 187.92 11.8889 188.911 12.3538L188.426 13.01C187.763 12.7126 187.301 12.1248 187.038 11.4309C186.771 12.1794 186.279 12.8118 185.575 13.1194L185.097 12.4426C186.108 11.9983 186.594 10.9387 186.601 10.0022V9.76294H185.315V9.06567H186.594V8.19067H187.469V9.06567H188.733V9.76294H187.462V10.0022ZM190.121 8.05395V10.467H191.037V11.1985H190.121V14.2747H189.246V8.05395H190.121ZM196.171 8.05395V10.4397H197.053V11.1575H196.171V14.261H195.296V8.05395H196.171ZM194.51 8.68969C194.503 10.5491 193.778 12.1623 191.687 13.1877L191.194 12.5178C192.667 11.7795 193.457 10.7883 193.621 9.40063H191.55V8.68969H194.51ZM200.423 11.6907V12.3127H201.093V11.6907H201.899V13.5774C202.59 13.2698 202.884 12.6887 202.884 12.1213V11.6428H203.759V12.1213C203.752 12.7571 204.06 13.3586 204.839 13.6116L204.388 14.261C203.851 14.0764 203.506 13.7209 203.308 13.2766C203.099 13.7073 202.757 14.0662 202.255 14.261L201.899 13.7209V14.2063H199.616V11.6907H200.423ZM200.423 13.5432H201.093V12.9553H200.423V13.5432ZM200.662 8.28637C201.455 8.28637 202.087 8.72729 202.262 9.38696H203.301V8.05395H204.169V11.3489H203.301V10.1047H202.262C202.094 10.7781 201.458 11.2258 200.662 11.2258C199.705 11.2258 199.001 10.6174 199.008 9.74926C199.001 8.89477 199.705 8.28637 200.662 8.28637ZM200.662 9.00415C200.177 9.00415 199.828 9.29126 199.835 9.74926C199.828 10.2209 200.177 10.5081 200.662 10.5149C201.134 10.5081 201.476 10.2209 201.476 9.74926C201.476 9.29126 201.134 9.00415 200.662 9.00415ZM210.027 9.74926V10.4329H205.68V8.2727H206.548V9.74926H210.027ZM210.663 11.1028V11.7864H204.969V11.1028H210.663ZM210.068 13.4407V14.1379H205.625V12.2922H206.5V13.4407H210.068ZM216.111 8.46411V9.16137H215.599V10.8225C215.807 10.8054 216.012 10.7849 216.207 10.761L216.241 11.4036C215.072 11.6018 213.712 11.6223 212.728 11.6223L212.639 10.9182L213.302 10.9114V9.16137H212.796V8.46411H216.111ZM217.882 8.05395V11.8547H217.014V10.925H216.248V10.2278H217.014V9.74926H216.248V9.06567H217.014V8.05395H217.882ZM215.756 11.9504C217.096 11.9573 217.896 12.3743 217.902 13.1194C217.896 13.844 217.096 14.2747 215.756 14.2747C214.423 14.2747 213.616 13.844 213.616 13.1194C213.616 12.3743 214.423 11.9573 215.756 11.9504ZM215.756 12.6204C214.922 12.6204 214.484 12.7776 214.484 13.1194C214.484 13.4475 214.922 13.6116 215.756 13.6116C216.59 13.6116 217.034 13.4475 217.034 13.1194C217.034 12.7776 216.59 12.6204 215.756 12.6204ZM214.143 10.8909L214.765 10.8704V9.16137H214.143V10.8909ZM221.102 9.74926C221.102 10.7541 221.614 11.8274 222.66 12.2649L222.188 12.9485C221.454 12.6374 220.948 12.0188 220.671 11.26C220.387 12.0837 219.871 12.7673 219.14 13.1057L218.641 12.4153C219.673 11.9573 220.206 10.802 220.206 9.74926V9.36645H218.887V8.65551H222.4V9.36645H221.102V9.74926ZM223.897 8.05395V14.2747H223.016V8.05395H223.897ZM230.433 12.8665V13.5842H224.738V12.8665H227.138V11.9299H225.395V9.83813H228.915V9.15454H225.388V8.45727H229.776V10.5217H226.27V11.219H229.92V11.9299H228.006V12.8665H230.433ZM237.337 8.05395V9.79712H238.178V10.5149H237.337V12.511H236.455V8.05395H237.337ZM235.642 8.5188C235.642 10.2004 234.589 11.3762 232.723 11.9026L232.36 11.2122C233.751 10.8225 234.541 10.1013 234.685 9.22973H232.634V8.5188H235.642ZM237.549 13.468V14.1653H233.29V12.053H234.172V13.468H237.549ZM243.66 8.05395V14.2883H242.778V8.05395H243.66ZM240.283 8.49145C241.22 8.49145 241.917 9.35278 241.917 10.7063C241.917 12.0735 241.22 12.928 240.283 12.928C239.326 12.928 238.629 12.0735 238.636 10.7063C238.629 9.35278 239.326 8.49145 240.283 8.49145ZM240.283 9.27758C239.798 9.27758 239.477 9.78344 239.477 10.7063C239.477 11.636 239.798 12.135 240.283 12.135C240.755 12.135 241.076 11.636 241.076 10.7063C241.076 9.78344 240.755 9.27758 240.283 9.27758ZM248.131 8.47094C249.115 8.46411 249.854 9.10669 249.854 9.99536C249.854 10.8909 249.115 11.5266 248.131 11.5266C247.146 11.5266 246.401 10.8909 246.401 9.99536C246.401 9.10669 247.146 8.46411 248.131 8.47094ZM248.131 9.2229C247.639 9.2229 247.263 9.51001 247.27 9.99536C247.263 10.4875 247.639 10.7678 248.131 10.7678C248.623 10.7678 248.999 10.4875 249.006 9.99536C248.999 9.51001 248.63 9.2229 248.131 9.2229ZM251.344 8.05395V14.2883H250.476V8.05395H251.344ZM246.142 12.3059C247.249 12.3127 248.787 12.2922 250.12 12.1077L250.188 12.7366C248.808 13.0032 247.331 13.0168 246.244 13.0168L246.142 12.3059ZM254.461 9.74926C254.454 10.6995 254.96 11.7932 255.985 12.2649L255.5 12.9485C254.806 12.6306 254.311 11.9949 254.037 11.2463C253.757 12.0701 253.248 12.7673 252.526 13.1057L252.021 12.4153C253.06 11.9299 253.579 10.7747 253.586 9.74926V9.36645H252.267V8.65551H255.712V9.36645H254.461V9.74926ZM257.072 8.05395V10.426H257.988V11.1575H257.072V14.2747H256.197V8.05395H257.072ZM263.122 8.05395V10.4397H264.004V11.1575H263.122V14.261H262.247V8.05395H263.122ZM261.461 8.68969C261.454 10.5491 260.729 12.1623 258.638 13.1877L258.146 12.5178C259.619 11.7795 260.408 10.7883 260.572 9.40063H258.501V8.68969H261.461ZM271.12 8.05395V11.219H270.252V9.67407H269.083V8.98364H270.252V8.05395H271.12ZM271.12 11.4788V13.1399H267.853V13.5227H271.298V14.2063H266.991V12.5041H270.259V12.1487H266.984V11.4788H271.12ZM268.208 8.7102C268.201 9.45532 268.639 10.1731 269.63 10.467L269.172 11.137C268.505 10.9216 268.041 10.5046 267.771 9.96801C267.5 10.5662 267.008 11.0378 266.28 11.2668L265.829 10.5764C266.861 10.2756 267.319 9.51684 267.326 8.7102V8.25903H268.208V8.7102ZM277.129 8.05395V14.2747H276.254V8.05395H277.129ZM274.36 10.0022C274.36 10.9045 274.873 11.9231 275.905 12.3469L275.434 13.0168C274.726 12.7263 274.22 12.1316 273.937 11.4172C273.66 12.176 273.15 12.8118 272.426 13.1125L271.961 12.4426C272.986 11.9983 273.492 10.9524 273.492 10.0022V9.76294H272.166V9.06567H273.485V8.19067H274.354V9.06567H275.652V9.76294H274.36V10.0022ZM281.682 10.5832V11.2805H280.472V12.2991C280.984 12.282 281.497 12.2478 281.982 12.1965L282.051 12.8323C280.69 13.0442 279.275 13.051 278.106 13.051L278.004 12.3401C278.5 12.3435 279.04 12.3435 279.597 12.3264V11.2805H278.414V8.60766H281.647V9.29809H279.282V10.5832H281.682ZM283.206 8.05395V14.2883H282.338V8.05395H283.206ZM287.239 8.60766V9.46215H288.415V8.05395H289.276V14.2883H288.415V11.8411H287.239V12.7571H284.259V8.60766H287.239ZM285.127 9.28442V12.0803H286.385V9.28442H285.127ZM287.239 11.1506H288.415V10.1663H287.239V11.1506ZM291.389 13.1399L290.801 15.0881H290.076L290.418 13.1399H291.389ZM294.533 13.6457H293.426L295.142 8.69653H296.461L298.17 13.6457H297.069L296.7 12.5041H294.909L294.533 13.6457ZM295.169 11.7043H296.44L295.818 9.81079H295.784L295.169 11.7043ZM298.963 10.9319C299.195 10.6858 299.489 10.5559 299.811 10.5559C300.371 10.5559 300.85 10.9456 301.41 10.9456C301.725 10.9456 302.012 10.8157 302.237 10.5696V11.4036C302.005 11.6497 301.711 11.7795 301.39 11.7795C300.829 11.7795 300.351 11.3899 299.79 11.3899C299.476 11.3899 299.188 11.5198 298.963 11.7659V10.9319ZM303.304 13.6457V8.69653H306.564V9.54419H304.329V10.7473H306.353V11.595H304.329V13.6457H303.304ZM312.02 8.41626V8.9768C312.02 9.55786 312.02 10.1936 311.862 11.0618H312.683V11.7659H310.256V14.2815H309.381V11.7659H307.009V11.0618H310.98C311.138 10.2585 311.151 9.65014 311.151 9.11352H307.658V8.41626H312.02ZM318.302 12.012V14.2747H317.434V12.6956H314.029V12.012H318.302ZM318.302 8.05395V11.7317H317.434V10.9456H316.039C315.742 11.2668 315.301 11.4582 314.795 11.4582C313.852 11.4582 313.134 10.8088 313.141 9.90649C313.134 9.02465 313.852 8.38208 314.795 8.38891C315.301 8.38549 315.742 8.57348 316.039 8.88794H317.434V8.05395H318.302ZM314.795 9.12036C314.31 9.12036 313.961 9.42114 313.968 9.90649C313.961 10.4192 314.31 10.7131 314.795 10.7131C315.253 10.7131 315.608 10.4192 315.608 9.90649C315.608 9.42114 315.253 9.12036 314.795 9.12036ZM316.401 10.2483H317.434V9.59204H316.408C316.425 9.69116 316.436 9.79712 316.436 9.90649C316.436 10.0261 316.422 10.1389 316.401 10.2483ZM324.782 11.2327V11.9299H319.108V11.2327H324.782ZM324.14 13.468V14.1653H319.792V12.3469H320.667V13.468H324.14ZM321.945 8.24536C323.306 8.23852 324.201 8.72387 324.208 9.51684C324.201 10.3098 323.306 10.802 321.945 10.802C320.571 10.802 319.676 10.3098 319.676 9.51684C319.676 8.72387 320.571 8.23852 321.945 8.24536ZM321.945 8.92895C321.084 8.93579 320.578 9.14087 320.585 9.51684C320.578 9.90649 321.084 10.0979 321.945 10.0979C322.807 10.0979 323.306 9.90649 323.306 9.51684C323.306 9.14087 322.807 8.93579 321.945 8.92895ZM332.165 8.05395V14.2747H331.345V8.05395H332.165ZM330.866 8.19067V14.0012H330.039V11.9504H329.157V11.2463H330.039V10.3987H329.273C328.983 11.4241 328.354 12.2922 327.188 12.9827L326.676 12.3674C327.937 11.6223 328.491 10.7165 328.61 9.49633H327.038V8.79223H329.479C329.479 9.10327 329.458 9.40405 329.424 9.69458H330.039V8.19067H330.866ZM337.757 8.05395V9.74926H338.598V10.467H337.757V12.552H336.882V8.05395H337.757ZM335.87 8.55297V9.25024H333.936V10.8225C335.06 10.8157 335.679 10.7815 336.376 10.6311L336.465 11.3284C335.686 11.4924 334.968 11.5266 333.587 11.5266H333.061V8.55297H335.87ZM337.982 13.468V14.1653H333.724V12.0735H334.592V13.468H337.982ZM341.257 8.93579C341.25 9.71508 341.694 10.467 342.72 10.7747L342.282 11.4582C341.575 11.2327 341.086 10.7917 340.806 10.2209C340.525 10.8362 340.02 11.3181 339.288 11.554L338.851 10.8704C339.89 10.5354 340.348 9.72876 340.348 8.93579V8.34106H341.257V8.93579ZM344.08 12.0325V14.2747H343.205V12.7297H339.801V12.0325H344.08ZM344.08 8.05395V11.7659H343.205V8.05395H344.08ZM350.116 8.55297V9.26391H348.872C348.913 9.89624 349.364 10.5046 350.294 10.7678L349.884 11.4514C349.187 11.2498 348.701 10.843 348.428 10.3166C348.154 10.8943 347.655 11.3455 346.931 11.5608L346.493 10.884C347.454 10.6003 347.915 9.95092 347.97 9.26391H346.719V8.55297H350.116ZM348.858 11.301V12.3401C349.34 12.3162 349.822 12.2786 350.273 12.217L350.335 12.8459C349.022 13.092 347.621 13.0852 346.575 13.092L346.459 12.3811C346.914 12.3811 347.437 12.3811 347.983 12.3674V11.301H348.858ZM352.324 10.5081V11.2395H351.477V14.2747H350.602V8.05395H351.477V10.5081H352.324ZM354.915 9.02465C354.908 9.79712 355.346 10.5491 356.33 10.8635L355.865 11.554C355.195 11.3284 354.741 10.8806 354.478 10.3166C354.201 10.9319 353.719 11.4138 353.015 11.6633L352.543 10.9661C353.582 10.6311 354.026 9.81762 354.033 8.96997V8.37524H354.915V9.02465ZM357.827 12.0393V14.2747H356.959V12.7297H353.555V12.0393H357.827ZM357.827 8.05395V11.759H356.959V9.927H355.79V9.20922H356.959V8.05395H357.827ZM363.843 8.05395V11.3967H362.968V8.05395H363.843ZM360.541 11.6702V12.2512H362.975V11.6702H363.843V14.2063H359.68V11.6702H360.541ZM360.541 13.5022H362.975V12.928H360.541V13.5022ZM360.432 8.31372C361.402 8.30688 362.134 8.91528 362.134 9.79028C362.134 10.6379 361.402 11.2463 360.432 11.2463C359.461 11.2463 358.729 10.6379 358.729 9.79028C358.729 8.91528 359.461 8.30688 360.432 8.31372ZM360.432 9.03833C359.933 9.03833 359.577 9.3186 359.584 9.79028C359.577 10.2551 359.933 10.5286 360.432 10.5286C360.917 10.5286 361.272 10.2551 361.272 9.79028C361.272 9.3186 360.917 9.03833 360.432 9.03833ZM369.913 8.05395V14.2747H369.045V8.05395H369.913ZM365.88 8.64868V11.9915C366.721 11.9812 367.623 11.9026 368.539 11.7248L368.648 12.4426C367.555 12.6682 366.529 12.7434 365.565 12.7366H365.019V8.64868H365.88ZM375.642 8.05395V10.3645H376.558V11.0754H375.642V14.2883H374.767V8.05395H375.642ZM373.898 8.62817V9.33227H371.848V12.0598C372.75 12.0496 373.495 12.0085 374.322 11.8616L374.418 12.593C373.454 12.7571 372.606 12.7844 371.506 12.7776H370.979V8.62817H373.898ZM377.59 13.7073C377.269 13.7073 377.009 13.4475 377.016 13.1331C377.009 12.8186 377.269 12.5657 377.59 12.5657C377.891 12.5657 378.157 12.8186 378.157 13.1331C378.157 13.4475 377.891 13.7073 377.59 13.7073Z" fill="#DB0000"/>
<rect x="30.625" y="343.435" width="62.1987" height="54.0646" fill="#FB7E4E"/>
<rect x="416.461" y="343.435" width="62.1987" height="54.0646" fill="#FB7E4E"/>
<rect x="96.3967" y="343.435" width="62.1987" height="54.0646" fill="#17B3FE"/>
<rect x="162.734" y="343.435" width="62.1987" height="54.0646" fill="#17B3FE"/>
<rect x="283.839" y="343.435" width="62.1987" height="54.0646" fill="#17B3FE"/>
<rect x="349.906" y="343.435" width="62.1987" height="54.0646" fill="#17B3FE"/>
<rect x="73.75" y="214.25" width="49.5" height="86.5" fill="#17B3FE"/>
<rect x="382.623" y="214.25" width="49.5" height="86.5" fill="#17B3FE"/>
<rect x="73.75" y="214.25" width="49.5" height="28.25" fill="#1CA814"/>
<rect x="127.234" y="214.25" width="57.2366" height="86.5" fill="#1CA814"/>
<rect x="321.938" y="214.25" width="57.2366" height="86.5" fill="#1CA814"/>
<path d="M188.625 300.743V214.25H251.875V282.939H218V300.743H188.625Z" fill="#1CA814"/>
<path d="M319.002 300.746V214.25H255.752V282.939H289.627V300.746H319.002Z" fill="#1CA814"/>
<path d="M124.324 174V91.75H103.883L78.125 102.469V174H124.324Z" fill="#1CA814"/>
<path d="M381.412 174V91.75H401.853L427.61 102.469V174H381.412Z" fill="#1CA814"/>
<rect x="382.623" y="214.25" width="49.5" height="28.25" fill="#1CA814"/>
<rect x="127.234" y="214.25" width="57.2366" height="28.25" fill="#7C68EE"/>
<rect x="127.324" y="80.7323" width="57.75" height="93.2677" fill="#7C68EE"/>
<rect x="320.662" y="80.7323" width="57.75" height="93.2677" fill="#7C68EE"/>
<rect x="188.074" y="80.7323" width="63.2939" height="93.2677" fill="#7C68EE"/>
<rect x="188.455" y="214.25" width="63.4202" height="28.25" fill="#7C68EE"/>
<rect x="255.752" y="214.25" width="63.25" height="28.25" fill="#7C68EE"/>
<rect x="321.938" y="214.25" width="57.2366" height="28.25" fill="#7C68EE"/>
<rect x="254.368" y="80.7323" width="63.2939" height="93.2677" fill="#7C68EE"/>
<path d="M94.6472 131.395V142H92.4353V133.489H92.3767L89.9451 135.013V133.064L92.5671 131.395H94.6472ZM101.224 142.146C98.573 142.146 96.9617 140.169 96.9617 136.697C96.9617 133.226 98.573 131.248 101.224 131.248C103.876 131.248 105.487 133.24 105.487 136.697C105.487 140.184 103.876 142.146 101.224 142.146ZM101.224 140.33C102.455 140.33 103.246 139.144 103.231 136.697C103.231 134.28 102.455 133.05 101.224 133.05C99.9939 133.05 99.2175 134.28 99.2175 136.697C99.2029 139.144 99.9939 140.33 101.224 140.33ZM111.581 131.395V142H109.369V133.489H109.31L106.879 135.013V133.064L109.501 131.395H111.581Z" fill="white"/>
<path d="M148.56 127.011V137.616H146.348V129.105H146.289L143.857 130.629V128.681L146.479 127.011H148.56ZM155.137 137.763C152.485 137.763 150.874 135.785 150.874 132.313C150.874 128.842 152.485 126.864 155.137 126.864C157.788 126.864 159.399 128.856 159.399 132.313C159.399 135.8 157.788 137.763 155.137 137.763ZM155.137 135.946C156.367 135.946 157.158 134.76 157.144 132.313C157.144 129.896 156.367 128.666 155.137 128.666C153.906 128.666 153.13 129.896 153.13 132.313C153.115 134.76 153.906 135.946 155.137 135.946ZM160.923 137.616L160.908 136.019L164.717 132.518C165.713 131.566 166.24 130.98 166.24 130.145C166.24 129.208 165.522 128.622 164.556 128.622C163.56 128.622 162.915 129.252 162.915 130.263H160.82C160.806 128.183 162.344 126.864 164.585 126.864C166.855 126.864 168.364 128.153 168.364 129.999C168.364 131.2 167.778 132.196 165.596 134.174L163.984 135.741V135.8H168.511V137.616H160.923Z" fill="white"/>
<path d="M211.869 127.011V137.616H209.657V129.105H209.599L207.167 130.629V128.681L209.789 127.011H211.869ZM218.446 137.763C215.795 137.763 214.184 135.785 214.184 132.313C214.184 128.842 215.795 126.864 218.446 126.864C221.098 126.864 222.709 128.856 222.709 132.313C222.709 135.8 221.098 137.763 218.446 137.763ZM218.446 135.946C219.677 135.946 220.468 134.76 220.453 132.313C220.453 129.896 219.677 128.666 218.446 128.666C217.216 128.666 216.439 129.896 216.439 132.313C216.425 134.76 217.216 135.946 218.446 135.946ZM228.158 137.763C225.829 137.763 224.159 136.474 224.115 134.628H226.342C226.386 135.419 227.147 135.946 228.173 135.946C229.228 135.946 229.989 135.346 229.975 134.496C229.989 133.632 229.213 133.017 227.968 133.017H226.986V131.391H227.968C229.008 131.391 229.74 130.819 229.74 129.984C229.74 129.179 229.125 128.622 228.188 128.622C227.25 128.622 226.474 129.149 226.444 129.955H224.335C224.364 128.124 226.02 126.864 228.188 126.864C230.399 126.864 231.879 128.168 231.864 129.852C231.879 131.039 231.044 131.889 229.857 132.094V132.182C231.41 132.372 232.274 133.324 232.26 134.642C232.274 136.459 230.546 137.763 228.158 137.763Z" fill="white"/>
<path d="M278.024 127.011V137.616H275.812V129.105H275.753L273.322 130.629V128.681L275.944 127.011H278.024ZM284.601 137.763C281.95 137.763 280.338 135.785 280.338 132.313C280.338 128.842 281.95 126.864 284.601 126.864C287.252 126.864 288.864 128.856 288.864 132.313C288.864 135.8 287.252 137.763 284.601 137.763ZM284.601 135.946C285.832 135.946 286.623 134.76 286.608 132.313C286.608 129.896 285.832 128.666 284.601 128.666C283.371 128.666 282.594 129.896 282.594 132.313C282.58 134.76 283.371 135.946 284.601 135.946ZM290.211 135.741V133.998L294.694 127.011H297.462V133.969H298.81V135.741H297.462V137.616H295.368V135.741H290.211ZM292.438 133.969H295.397V129.428H295.294L292.438 133.881V133.969Z" fill="white"/>
<path d="M341.773 127.011V137.616H339.561V129.105H339.502L337.071 130.629V128.681L339.693 127.011H341.773ZM348.35 137.763C345.699 137.763 344.087 135.785 344.087 132.313C344.087 128.842 345.699 126.864 348.35 126.864C351.001 126.864 352.613 128.856 352.613 132.313C352.613 135.8 351.001 137.763 348.35 137.763ZM348.35 135.946C349.581 135.946 350.372 134.76 350.357 132.313C350.357 129.896 349.581 128.666 348.35 128.666C347.12 128.666 346.343 129.896 346.343 132.313C346.329 134.76 347.12 135.946 348.35 135.946ZM358.033 137.763C355.821 137.763 354.209 136.459 354.166 134.628H356.304C356.348 135.463 357.11 136.019 358.033 136.019C359.131 136.019 359.908 135.243 359.908 134.144C359.908 133.017 359.117 132.24 358.003 132.226C357.212 132.226 356.656 132.518 356.333 133.119H354.341L354.913 127.011H361.446V128.812H356.729L356.436 131.493H356.524C356.919 130.966 357.71 130.6 358.648 130.6C360.596 130.6 362.046 132.05 362.046 134.086C362.046 136.225 360.42 137.763 358.033 137.763Z" fill="white"/>
<path d="M396.63 131.395V142H394.418V133.489H394.36L391.928 135.013V133.064L394.55 131.395H396.63ZM403.208 142.146C400.556 142.146 398.945 140.169 398.945 136.697C398.945 133.226 400.556 131.248 403.208 131.248C405.859 131.248 407.47 133.24 407.47 136.697C407.47 140.184 405.859 142.146 403.208 142.146ZM403.208 140.33C404.438 140.33 405.229 139.144 405.214 136.697C405.214 134.28 404.438 133.05 403.208 133.05C401.977 133.05 401.201 134.28 401.201 136.697C401.186 139.144 401.977 140.33 403.208 140.33ZM413.095 142.146C410.898 142.132 408.818 140.828 408.818 136.946C408.818 133.372 410.532 131.248 413.183 131.248C415.322 131.248 416.772 132.596 416.992 134.339H414.824C414.648 133.592 414.033 133.138 413.183 133.138C411.748 133.138 410.986 134.441 410.971 136.521H411.074C411.557 135.584 412.612 135.027 413.784 135.027C415.688 135.027 417.109 136.463 417.109 138.455C417.109 140.608 415.483 142.161 413.095 142.146ZM413.081 140.403C414.165 140.403 414.97 139.583 414.97 138.514C414.97 137.459 414.194 136.624 413.11 136.624C412.026 136.624 411.206 137.474 411.191 138.514C411.206 139.554 411.997 140.403 413.081 140.403Z" fill="white"/>
<path d="M393.859 267.625L393.845 266.028L397.653 262.527C398.649 261.575 399.177 260.989 399.177 260.154C399.177 259.217 398.459 258.631 397.492 258.631C396.496 258.631 395.852 259.261 395.852 260.271H393.757C393.742 258.191 395.28 256.873 397.521 256.873C399.792 256.873 401.301 258.162 401.301 260.008C401.301 261.209 400.715 262.205 398.532 264.183L396.921 265.75V265.809H401.447V267.625H393.859ZM407.131 267.771C404.479 267.771 402.868 265.794 402.868 262.322C402.868 258.851 404.479 256.873 407.131 256.873C409.782 256.873 411.394 258.865 411.394 262.322C411.394 265.809 409.782 267.771 407.131 267.771ZM407.131 265.955C408.361 265.955 409.152 264.769 409.138 262.322C409.138 259.905 408.361 258.675 407.131 258.675C405.9 258.675 405.124 259.905 405.124 262.322C405.109 264.769 405.9 265.955 407.131 265.955ZM417.019 267.771C414.821 267.757 412.741 266.453 412.741 262.571C412.741 258.997 414.455 256.873 417.106 256.873C419.245 256.873 420.695 258.221 420.915 259.964H418.747C418.571 259.217 417.956 258.763 417.106 258.763C415.671 258.763 414.909 260.066 414.895 262.146H414.997C415.48 261.209 416.535 260.652 417.707 260.652C419.611 260.652 421.032 262.088 421.032 264.08C421.032 266.233 419.406 267.786 417.019 267.771ZM417.004 266.028C418.088 266.028 418.894 265.208 418.894 264.139C418.894 263.084 418.117 262.249 417.033 262.249C415.949 262.249 415.129 263.099 415.114 264.139C415.129 265.179 415.92 266.028 417.004 266.028Z" fill="white"/>
<path d="M337.16 267.625L337.146 266.028L340.954 262.527C341.95 261.575 342.478 260.989 342.478 260.154C342.478 259.217 341.76 258.631 340.793 258.631C339.797 258.631 339.153 259.261 339.153 260.271H337.058C337.043 258.191 338.581 256.873 340.823 256.873C343.093 256.873 344.602 258.162 344.602 260.008C344.602 261.209 344.016 262.205 341.833 264.183L340.222 265.75V265.809H344.748V267.625H337.16ZM350.432 267.771C347.781 267.771 346.169 265.794 346.169 262.322C346.169 258.851 347.781 256.873 350.432 256.873C353.083 256.873 354.695 258.865 354.695 262.322C354.695 265.809 353.083 267.771 350.432 267.771ZM350.432 265.955C351.662 265.955 352.453 264.769 352.439 262.322C352.439 259.905 351.662 258.675 350.432 258.675C349.201 258.675 348.425 259.905 348.425 262.322C348.41 264.769 349.201 265.955 350.432 265.955ZM360.115 267.771C357.903 267.771 356.291 266.468 356.247 264.637H358.386C358.43 265.472 359.192 266.028 360.115 266.028C361.213 266.028 361.99 265.252 361.99 264.153C361.99 263.025 361.198 262.249 360.085 262.234C359.294 262.234 358.738 262.527 358.415 263.128H356.423L356.994 257.02H363.528V258.821H358.811L358.518 261.502H358.606C359.001 260.975 359.792 260.608 360.73 260.608C362.678 260.608 364.128 262.059 364.128 264.095C364.128 266.233 362.502 267.771 360.115 267.771Z" fill="white"/>
<path d="M273.754 267.623L273.739 266.026L277.548 262.525C278.544 261.573 279.071 260.987 279.071 260.152C279.071 259.215 278.354 258.629 277.387 258.629C276.391 258.629 275.746 259.259 275.746 260.27H273.651C273.637 258.189 275.175 256.871 277.416 256.871C279.687 256.871 281.195 258.16 281.195 260.006C281.195 261.207 280.609 262.203 278.427 264.181L276.815 265.748V265.807H281.342V267.623H273.754ZM287.025 267.77C284.374 267.77 282.763 265.792 282.763 262.32C282.763 258.849 284.374 256.871 287.025 256.871C289.677 256.871 291.288 258.863 291.288 262.32C291.288 265.807 289.677 267.77 287.025 267.77ZM287.025 265.953C288.256 265.953 289.047 264.767 289.032 262.32C289.032 259.903 288.256 258.673 287.025 258.673C285.795 258.673 285.019 259.903 285.019 262.32C285.004 264.767 285.795 265.953 287.025 265.953ZM292.636 265.748V264.005L297.118 257.018H299.887V263.976H301.234V265.748H299.887V267.623H297.792V265.748H292.636ZM294.862 263.976H297.821V259.435H297.719L294.862 263.888V263.976Z" fill="white"/>
<path d="M206.766 267.621L206.751 266.024L210.56 262.523C211.556 261.571 212.083 260.985 212.083 260.15C212.083 259.213 211.366 258.627 210.399 258.627C209.403 258.627 208.758 259.257 208.758 260.268H206.664C206.649 258.188 208.187 256.869 210.428 256.869C212.699 256.869 214.208 258.158 214.208 260.004C214.208 261.205 213.622 262.201 211.439 264.179L209.828 265.746V265.805H214.354V267.621H206.766ZM220.038 267.768C217.386 267.768 215.775 265.79 215.775 262.318C215.775 258.847 217.386 256.869 220.038 256.869C222.689 256.869 224.3 258.861 224.3 262.318C224.3 265.805 222.689 267.768 220.038 267.768ZM220.038 265.951C221.268 265.951 222.059 264.765 222.044 262.318C222.044 259.901 221.268 258.671 220.038 258.671C218.807 258.671 218.031 259.901 218.031 262.318C218.016 264.765 218.807 265.951 220.038 265.951ZM229.75 267.768C227.42 267.768 225.75 266.479 225.707 264.633H227.933C227.977 265.424 228.739 265.951 229.764 265.951C230.819 265.951 231.581 265.351 231.566 264.501C231.581 263.637 230.804 263.021 229.559 263.021H228.578V261.396H229.559C230.599 261.396 231.332 260.824 231.332 259.989C231.332 259.184 230.716 258.627 229.779 258.627C228.841 258.627 228.065 259.154 228.036 259.96H225.926C225.956 258.129 227.611 256.869 229.779 256.869C231.991 256.869 233.47 258.173 233.456 259.857C233.47 261.044 232.635 261.894 231.449 262.099V262.187C233.001 262.377 233.866 263.329 233.851 264.647C233.866 266.464 232.137 267.768 229.75 267.768Z" fill="white"/>
<path d="M142.581 267.625L142.567 266.028L146.375 262.527C147.371 261.575 147.899 260.989 147.899 260.154C147.899 259.217 147.181 258.631 146.214 258.631C145.218 258.631 144.573 259.261 144.573 260.271H142.479C142.464 258.191 144.002 256.873 146.243 256.873C148.514 256.873 150.023 258.162 150.023 260.008C150.023 261.209 149.437 262.205 147.254 264.183L145.643 265.75V265.809H150.169V267.625H142.581ZM155.853 267.771C153.201 267.771 151.59 265.794 151.59 262.322C151.59 258.851 153.201 256.873 155.853 256.873C158.504 256.873 160.115 258.865 160.115 262.322C160.115 265.809 158.504 267.771 155.853 267.771ZM155.853 265.955C157.083 265.955 157.874 264.769 157.86 262.322C157.86 259.905 157.083 258.675 155.853 258.675C154.622 258.675 153.846 259.905 153.846 262.322C153.831 264.769 154.622 265.955 155.853 265.955ZM161.639 267.625L161.624 266.028L165.433 262.527C166.429 261.575 166.956 260.989 166.956 260.154C166.956 259.217 166.239 258.631 165.272 258.631C164.276 258.631 163.631 259.261 163.631 260.271H161.536C161.522 258.191 163.06 256.873 165.301 256.873C167.572 256.873 169.08 258.162 169.08 260.008C169.08 261.209 168.494 262.205 166.312 264.183L164.7 265.75V265.809H169.227V267.625H161.639Z" fill="white"/>
<path d="M86.2905 267.625L86.2759 266.028L90.0845 262.527C91.0806 261.575 91.6079 260.989 91.6079 260.154C91.6079 259.217 90.8901 258.631 89.9233 258.631C88.9272 258.631 88.2827 259.261 88.2827 260.271H86.188C86.1733 258.191 87.7114 256.873 89.9526 256.873C92.2231 256.873 93.7319 258.162 93.7319 260.008C93.7319 261.209 93.146 262.205 90.9634 264.183L89.3521 265.75V265.809H93.8784V267.625H86.2905ZM99.562 267.771C96.9106 267.771 95.2993 265.794 95.2993 262.322C95.2993 258.851 96.9106 256.873 99.562 256.873C102.213 256.873 103.825 258.865 103.825 262.322C103.825 265.809 102.213 267.771 99.562 267.771ZM99.562 265.955C100.792 265.955 101.583 264.769 101.569 262.322C101.569 259.905 100.792 258.675 99.562 258.675C98.3315 258.675 97.5552 259.905 97.5552 262.322C97.5405 264.769 98.3315 265.955 99.562 265.955ZM109.918 257.02V267.625H107.707V259.114H107.648L105.216 260.638V258.689L107.838 257.02H109.918Z" fill="white"/>
<path d="M59.0073 375.968H56.6343L60.311 365.362H63.1382L66.8003 375.968H64.4419L63.6509 373.521H59.813L59.0073 375.968ZM60.3696 371.807H63.0942L61.7612 367.75H61.688L60.3696 371.807Z" fill="white"/>
<path d="M314.308 375.968H310.573V365.362H314.352C317.545 365.362 319.494 367.354 319.494 370.65C319.494 373.975 317.545 375.968 314.308 375.968ZM312.77 374.078H314.22C316.242 374.078 317.296 373.023 317.296 370.65C317.296 368.292 316.242 367.252 314.235 367.252H312.77V374.078Z" fill="white"/>
<path d="M377.482 375.968V365.362H384.602V367.179H379.68V369.757H384.235V371.573H379.68V374.151H384.616V375.968H377.482Z" fill="white"/>
<path d="M444.235 375.968V365.362H451.222V367.179H446.432V369.757H450.768V371.573H446.432V375.968H444.235Z" fill="white"/>
<path d="M123.614 375.968V365.362H127.833C130.177 365.362 131.349 366.49 131.349 368.087C131.349 369.332 130.543 370.108 129.444 370.357V370.46C130.646 370.518 131.773 371.471 131.773 373.038C131.773 374.723 130.514 375.968 128.111 375.968H123.614ZM127.672 374.151C128.946 374.151 129.488 373.624 129.488 372.833C129.488 371.939 128.814 371.309 127.73 371.309H125.812V374.151H127.672ZM127.511 369.801C128.434 369.801 129.122 369.288 129.122 368.438C129.122 367.677 128.565 367.149 127.555 367.149H125.812V369.801H127.511Z" fill="white"/>
<path d="M196.39 369.054C196.214 367.882 195.306 367.164 194.075 367.164C192.42 367.164 191.336 368.438 191.336 370.665C191.336 372.95 192.435 374.166 194.061 374.166C195.276 374.166 196.17 373.492 196.39 372.349L198.616 372.364C198.367 374.327 196.727 376.114 194.031 376.114C191.189 376.114 189.095 374.122 189.095 370.665C189.095 367.208 191.233 365.216 194.031 365.216C196.478 365.216 198.323 366.622 198.616 369.054H196.39Z" fill="white"/>
<path d="M221.831 287.551C221.831 286.629 222.579 285.881 223.502 285.881H283.985C284.908 285.881 285.656 286.629 285.656 287.551V301.419C285.656 302.342 284.908 303.09 283.985 303.09H223.502C222.579 303.09 221.831 302.342 221.831 301.419V287.551Z" fill="#CACFDA"/>
<path d="M241.539 293.393C241.46 292.869 241.054 292.548 240.504 292.548C239.763 292.548 239.278 293.118 239.278 294.114C239.278 295.136 239.77 295.68 240.497 295.68C241.041 295.68 241.44 295.378 241.539 294.867L242.534 294.874C242.423 295.752 241.689 296.551 240.484 296.551C239.213 296.551 238.276 295.66 238.276 294.114C238.276 292.568 239.233 291.677 240.484 291.677C241.578 291.677 242.403 292.306 242.534 293.393H241.539ZM247.566 294.114C247.566 295.66 246.603 296.551 245.351 296.551C244.087 296.551 243.131 295.653 243.131 294.114C243.131 292.568 244.087 291.677 245.351 291.677C246.603 291.677 247.566 292.568 247.566 294.114ZM246.563 294.114C246.563 293.098 246.085 292.548 245.351 292.548C244.618 292.548 244.133 293.098 244.133 294.114C244.133 295.129 244.618 295.68 245.351 295.68C246.085 295.68 246.563 295.129 246.563 294.114ZM252.23 291.742V296.485H251.378L249.295 293.472H249.256V296.485H248.273V291.742H249.138L251.208 294.756H251.254V291.742H252.23ZM255.604 293.098C255.565 292.725 255.263 292.502 254.785 292.502C254.287 292.502 254.012 292.731 254.005 293.046C253.999 293.387 254.359 293.544 254.765 293.636L255.191 293.74C256.004 293.924 256.613 294.337 256.613 295.129C256.613 296.001 255.931 296.551 254.778 296.551C253.632 296.551 252.898 296.02 252.872 295.005H253.829C253.861 295.483 254.241 295.725 254.765 295.725C255.283 295.725 255.617 295.483 255.617 295.129C255.617 294.808 255.322 294.658 254.805 294.527L254.287 294.402C253.488 294.206 252.997 293.806 252.997 293.111C252.997 292.247 253.757 291.677 254.792 291.677C255.84 291.677 256.534 292.26 256.547 293.098H255.604ZM261.598 294.114C261.598 295.66 260.635 296.551 259.384 296.551C258.12 296.551 257.163 295.653 257.163 294.114C257.163 292.568 258.12 291.677 259.384 291.677C260.635 291.677 261.598 292.568 261.598 294.114ZM260.596 294.114C260.596 293.098 260.118 292.548 259.384 292.548C258.65 292.548 258.165 293.098 258.165 294.114C258.165 295.129 258.65 295.68 259.384 295.68C260.118 295.68 260.596 295.129 260.596 294.114ZM262.306 296.485V291.742H263.288V295.673H265.332V296.485H262.306ZM265.968 296.485V291.742H269.152V292.555H266.951V293.708H268.988V294.52H266.951V295.673H269.158V296.485H265.968Z" fill="white"/>
<path d="M155.271 27.111C155.271 24.4527 157.426 22.2977 160.084 22.2977H349.337C351.996 22.2977 354.151 24.4527 354.151 27.111V65.6327C354.151 68.291 351.996 70.446 349.337 70.446H160.084C157.426 70.446 155.271 68.291 155.271 65.6327V27.111Z" fill="#CACFDA"/>
<path d="M238.071 44.0815C237.986 43.2777 237.338 42.7983 236.308 42.7983C235.237 42.7983 234.644 43.2918 234.63 43.9687C234.616 44.702 235.392 45.0404 236.266 45.2378L237.183 45.4634C238.931 45.8583 240.243 46.7466 240.243 48.4529C240.243 50.3284 238.776 51.5129 236.294 51.5129C233.827 51.5129 232.247 50.3707 232.191 48.185H234.25C234.32 49.2144 235.138 49.7361 236.266 49.7361C237.38 49.7361 238.099 49.2144 238.099 48.4529C238.099 47.7619 237.465 47.4376 236.351 47.1556L235.237 46.8876C233.516 46.4646 232.459 45.6044 232.459 44.1097C232.459 42.2483 234.094 41.0215 236.322 41.0215C238.579 41.0215 240.073 42.2765 240.102 44.0815H238.071ZM241.23 42.9111V41.1625H249.592V42.9111H246.461V51.3719H244.36V42.9111H241.23ZM251.354 51.3719H249.07L252.609 41.1625H255.331L258.856 51.3719H256.586L255.825 49.0169H252.13L251.354 51.3719ZM252.666 47.3671H255.289L254.005 43.461H253.935L252.666 47.3671ZM266.316 44.4481C266.034 43.4892 265.258 42.897 264.144 42.897C262.565 42.897 261.493 44.1097 261.493 46.2531C261.493 48.4106 262.537 49.6374 264.158 49.6374C265.618 49.6374 266.485 48.8125 266.513 47.5222H264.299V45.9288H268.558V47.1979C268.558 49.8771 266.725 51.5129 264.144 51.5129C261.282 51.5129 259.336 49.5105 259.336 46.2813C259.336 42.9675 261.409 41.0215 264.102 41.0215C266.401 41.0215 268.177 42.4316 268.459 44.4481H266.316ZM270.109 51.3719V41.1625H276.962V42.9111H272.224V45.3929H276.61V47.1415H272.224V49.6233H276.976V51.3719H270.109Z" fill="white"/>
</svg>
